<?xml version="1.0" encoding="UTF-8" standalone="no"?>
<svg
   width="32"
   height="32"
   viewBox="0 0 24 24"
   version="1.1"
   id="svg2"
   xmlns:xlink="http://www.w3.org/1999/xlink"
   xmlns="http://www.w3.org/2000/svg"
   xmlns:svg="http://www.w3.org/2000/svg">
  <defs
     id="defs2" />
  <!-- Icon from Google Material Icons by Material Design Authors - https://github.com/material-icons/material-icons/blob/master/LICENSE -->
  <path
     fill="currentColor"
     d="m 12,4 c 4.08,0 7.45,3.05 7.94,7 H 15.88 C 15.43,9.27 13.86,8 12,8 10.14,8 8.57,9.27 8.13,11 H 4.06 C 4.55,7.05 7.92,4 12,4"
     opacity="0.3"
     id="path1"
     style="fill:#db3e17;fill-opacity:1;fill-rule:nonzero" />
  <path
     fill="currentColor"
     d="M 12,2 C 6.48,2 2,6.48 2,12 2,17.52 6.48,22 12,22 17.52,22 22,17.52 22,12 22,6.48 17.52,2 12,2 m 0,2 c 4.08,0 7.45,3.05 7.94,7 H 15.88 C 15.43,9.27 13.86,8 12,8 10.14,8 8.57,9.27 8.13,11 H 4.06 C 4.55,7.05 7.92,4 12,4 m 2,8 c 0,1.1 -0.9,2 -2,2 -1.1,0 -2,-0.9 -2,-2 0,-1.1 0.9,-2 2,-2 1.1,0 2,0.9 2,2 m -2,8 C 7.92,20 4.55,16.95 4.06,13 h 4.06 c 0.44,1.73 2.01,3 3.87,3 1.86,0 3.43,-1.27 3.87,-3 h 4.06 c -0.47,3.95 -3.84,7 -7.92,7"
     id="path2" />
  <use
     x="0"
     y="0"
     xlink:href="#path1"
     id="use2" />
  <use
     x="0"
     y="0"
     xlink:href="#use2"
     id="use3" />
  <use
     x="0"
     y="0"
     xlink:href="#use3"
     id="use4" />
  <use
     x="0"
     y="0"
     xlink:href="#use4"
     id="use5" />
  <use
     x="0"
     y="0"
     xlink:href="#use5"
     id="use6" />
  <use
     x="0"
     y="0"
     xlink:href="#use6"
     id="use7" />
</svg>
